PathFileType	4	(X/Y/Z)	c:/Users/goper/Files/vsCode/490R/osim_files/A04/A04_Static02.trc
DataRate	CameraRate	NumFrames	NumMarkers	Units                	OrigDataRate	OrigDataStartFrame	OrigNumFrames
120.00	120.00	7	36	mm	120.0	321	855
                Frame#	Time	LPSIS			LASIS			LTH1			LTH2			LTH3			LTH4			LLFE			LMFE			LSH1			LSH2			LSH3			LSH4			LLMAL			LMMAL			LCAL			LMTP5			LTOE			LMTP1			RPSIS			RASIS			RTH1			RTH2			RTH3			RTH4			RLFE			RMFE			RSH1			RSH2			RSH3			RSH4			RLMAL			RMMAL			RCAL			RMTP1			RTOE			RMTP5		
		X1	Y1	Z1	X2	Y2	Z2	X3	Y3	Z3	X4	Y4	Z4	X5	Y5	Z5	X6	Y6	Z6	X7	Y7	Z7	X8	Y8	Z8	X9	Y9	Z9	X10	Y10	Z10	X11	Y11	Z11	X12	Y12	Z12	X13	Y13	Z13	X14	Y14	Z14	X15	Y15	Z15	X16	Y16	Z16	X17	Y17	Z17	X18	Y18	Z18	X19	Y19	Z19	X20	Y20	Z20	X21	Y21	Z21	X22	Y22	Z22	X23	Y23	Z23	X24	Y24	Z24	X25	Y25	Z25	X26	Y26	Z26	X27	Y27	Z27	X28	Y28	Z28	X29	Y29	Z29	X30	Y30	Z30	X31	Y31	Z31	X32	Y32	Z32	X33	Y33	Z33	X34	Y34	Z34	X35	Y35	Z35	X36	Y36	Z36

321	2.66667	-277.00024	1053.02332	406.40073	-57.98087	1017.66711	310.80975	-174.50792	712.01123	283.29221	-174.73399	668.13049	280.88513	-113.32149	708.29944	282.83649	-120.82333	663.97272	280.63177	-164.24202	538.47510	281.00000	-134.31723	525.17169	417.38306	-211.81979	442.56061	275.94821	-210.88506	398.92938	273.92618	-149.69640	436.10861	280.28891	-158.13435	393.35706	279.30240	-273.93115	115.33953	294.53955	-242.97501	114.69632	374.62161	-334.19043	74.81601	354.62665	-141.61781	60.28231	242.21098	-85.60766	72.62923	297.09799	-99.38803	56.19339	343.44809	-272.97470	1046.06042	511.94202	-44.50092	1037.62000	599.32800	-164.54303	731.39197	633.92328	-158.22107	689.73547	631.42633	-102.91431	734.42334	642.78534	-105.02240	687.47180	636.30573	-112.02374	550.70557	611.23517	-99.70135	546.23083	493.55826	-199.53413	345.35107	601.66656	-201.05177	298.19479	594.01135	-138.94821	336.77637	608.01672	-149.43268	290.52277	603.74866	-201.76825	103.28022	599.41150	-170.69049	111.54082	466.69547	-269.63940	60.66553	518.21405	-44.30468	54.87596	490.31653	-22.21171	75.14893	538.21661	-58.71634	48.45487	609.26019
322	2.67500	-277.19125	1052.92053	406.57693	-58.14486	1017.72424	310.94455	-174.58893	712.02374	283.38165	-174.81294	668.16260	280.95316	-113.42049	708.28674	282.91537	-120.88154	664.00116	280.69147	-164.28073	538.46912	281.04047	-134.34871	525.16479	417.42633	-211.83989	442.54306	275.96396	-210.88434	398.93372	273.94711	-149.71837	436.09006	280.34814	-158.15674	393.35498	279.34134	-273.92667	115.34204	294.53012	-243.10474	114.77392	374.57684	-334.23758	74.81210	354.60950	-141.63248	60.29248	242.22935	-85.62431	72.64326	297.09311	-99.44176	56.18278	343.43933	-273.13397	1045.97095	512.11334	-44.67923	1037.60828	599.45850	-164.71036	731.40912	634.00635	-158.33287	689.72394	631.49274	-103.06870	734.45996	642.86896	-105.13596	687.47705	636.40845	-111.95273	550.76691	611.26447	-99.67552	546.23181	493.64050	-199.59731	345.34225	601.72778	-201.11484	298.16922	594.06757	-138.98225	336.75302	608.06616	-149.21863	290.49243	603.75061	-201.85155	103.26907	599.40717	-170.70203	111.53012	466.71143	-269.71802	60.70908	518.20862	-44.33627	54.86641	490.32059	-22.23195	75.15963	538.20166	-58.72183	48.46065	609.28375
323	2.68333	-277.40445	1052.82019	406.77084	-58.32565	1017.79413	311.06531	-174.63585	712.01782	283.43585	-174.86580	668.16620	281.00766	-113.48009	708.31018	282.97198	-120.93537	664.02441	280.74771	-164.31932	538.48029	281.09900	-134.35864	525.16351	417.47998	-211.86446	442.54379	275.99780	-210.88725	398.94406	273.97177	-149.74791	436.09647	280.39075	-158.17081	393.36484	279.38083	-273.81735	115.38047	294.68750	-243.08882	114.77497	374.56741	-333.69324	74.47083	354.23505	-141.61470	60.31683	242.20598	-85.61484	72.65379	297.09863	-99.40681	56.22648	343.44852	-273.33600	1045.86279	512.33765	-44.80967	1037.61804	599.57928	-164.80676	731.47021	634.01569	-158.43456	689.72083	631.53137	-103.15833	734.47070	642.93445	-105.23553	687.49994	636.46545	-111.98784	550.73236	611.35211	-99.68655	546.21454	493.72913	-199.61349	345.34485	601.75848	-201.11632	298.17551	594.10132	-138.97874	336.75024	608.10950	-149.22646	290.47369	603.79120	-201.81491	103.27683	599.42371	-170.69539	111.54136	466.74112	-269.71027	60.73181	518.20764	-44.31925	54.91420	490.30780	-22.21963	75.18941	538.20221	-58.70735	48.47794	609.26758
324	2.69167	-277.62064	1052.70569	406.93930	-58.49842	1017.87543	311.19238	-174.70227	712.02734	283.46725	-174.92270	668.16382	281.07181	-113.53494	708.34650	283.01883	-120.98480	664.06262	280.79517	-164.31876	538.48029	281.12177	-134.40569	525.14795	417.53220	-211.86407	442.55695	276.02951	-210.93330	398.94803	274.01749	-149.75327	436.12198	280.41583	-158.20444	393.37485	279.39304	-273.91534	115.30658	294.57907	-243.14294	114.76805	374.57846	-334.25632	74.79251	354.60345	-141.63248	60.32276	242.20491	-85.63801	72.66336	297.10260	-99.42272	56.22316	343.44186	-273.47672	1045.70703	512.52795	-44.99646	1037.60217	599.70935	-164.95491	731.41309	634.08832	-158.56773	689.70441	631.58246	-103.31342	734.45728	643.03046	-105.35020	687.48303	636.54901	-112.01219	550.70844	611.42914	-99.73460	546.22827	493.80377	-199.69945	345.31244	601.79517	-201.20927	298.16238	594.13177	-139.03726	336.71997	608.15308	-149.27557	290.46356	603.80768	-201.84238	103.25813	599.42584	-170.70325	111.54798	466.72269	-269.73874	60.70875	518.23755	-44.32111	54.92030	490.30219	-22.25953	75.18680	538.21765	-58.74264	48.45903	609.27020
325	2.70000	-277.76395	1052.57263	407.11652	-58.66291	1017.94916	311.31503	-174.72702	712.02295	283.51038	-174.93828	668.15631	281.11057	-113.61313	708.34332	283.07706	-121.01569	664.06616	280.83841	-164.34807	538.49414	281.19083	-134.38911	525.15344	417.58328	-211.86176	442.55649	276.06213	-210.91037	398.93588	274.04587	-149.75414	436.12164	280.42749	-158.20747	393.36328	279.42746	-273.79568	115.36148	294.69504	-243.01837	114.64699	374.62442	-334.27679	74.78885	354.65143	-141.46408	60.42151	242.36789	-85.68499	72.61995	297.11627	-99.46464	56.19461	343.47086	-273.61963	1045.57935	512.72101	-45.19235	1037.51953	599.88116	-165.04585	731.37231	634.16931	-158.67625	689.68567	631.66132	-103.50134	734.41168	643.21710	-105.43385	687.43835	636.67261	-112.27920	550.60168	611.56549	-99.76638	546.21600	493.86475	-199.71245	345.25391	601.84937	-201.25699	298.12482	594.17706	-139.09340	336.68353	608.21661	-149.59578	290.43796	603.90118	-201.86299	103.22481	599.42877	-170.73656	111.54549	466.74149	-269.77792	60.67808	518.26147	-44.37599	54.89194	490.32413	-22.32350	75.13855	538.23071	-58.77836	48.43364	609.30658
326	2.70833	-277.95297	1052.44482	407.30237	-58.83522	1018.00562	311.46094	-174.74168	712.04260	283.55002	-174.94766	668.14972	281.15460	-113.62048	708.33380	283.14111	-121.01959	664.06732	280.87732	-164.31773	538.50171	281.21780	-134.37585	525.11407	417.65234	-211.81560	442.59467	276.08621	-210.91273	398.94363	274.09586	-149.72906	436.10693	280.48569	-158.18866	393.35263	279.45438	-273.79684	115.36832	294.67703	-242.99257	114.66105	374.63269	-334.23285	74.75727	354.63104	-141.41934	60.42052	242.39203	-85.66128	72.59241	297.13553	-99.45045	56.15268	343.47394	-273.74164	1045.47681	512.90845	-45.24498	1037.50195	600.03937	-165.06007	731.32562	634.24072	-158.70119	689.65033	631.74377	-103.49547	734.39771	643.29041	-105.49147	687.39575	636.76526	-112.27467	550.56287	611.65942	-99.79092	546.23010	493.95224	-199.65918	345.17993	601.91101	-201.15938	298.08319	594.23199	-139.10722	336.65222	608.26050	-149.56760	290.41727	603.93127	-201.84889	103.19042	599.45337	-170.72855	111.54462	466.74002	-269.69485	60.62310	518.25385	-44.38697	54.86058	490.33899	-22.28369	75.11885	538.24573	-58.74475	48.42663	609.32410
327	2.71667	-278.12112	1052.32520	407.51044	-58.98889	1018.11908	311.61517	-174.72905	712.02252	283.58185	-174.92061	668.17651	281.19373	-113.65555	708.33325	283.20038	-120.99545	664.09015	280.94604	-164.26666	538.49652	281.28220	-134.33290	525.11383	417.69623	-211.80341	442.62302	276.12735	-210.86252	398.95325	274.11533	-149.71069	436.09210	280.51736	-158.14861	393.34918	279.50122	-273.76773	115.39991	294.65927	-242.96133	114.68596	374.63718	-334.22311	74.79498	354.62036	-141.40642	60.43594	242.37370	-85.62652	72.60826	297.11435	-99.42141	56.18162	343.47565	-273.85605	1045.36035	513.09888	-45.38123	1037.47034	600.21356	-165.10184	731.31519	634.30267	-158.76053	689.63635	631.81860	-103.57239	734.41302	643.40131	-105.49911	687.43079	636.89569	-112.29957	550.55927	611.73541	-99.83652	546.23798	494.02798	-199.64687	345.15887	601.96448	-201.17831	298.10287	594.28168	-139.09436	336.63937	608.29498	-149.55075	290.41873	603.96594	-201.81967	103.20482	599.48846	-170.70908	111.56153	466.76163	-269.68750	60.63789	518.25183	-44.35869	54.85856	490.33917	-22.27933	75.12808	538.25159	-58.75173	48.43599	609.30615
